M48
;DRILL file {KiCad 4.0.5} date 03/08/17 17:50:50
;FORMAT={-:-/ absolute / inch / decimal}
FMAT,2
INCH,TZ
T1C0.016
T2C0.031
T3C0.035
T4C0.039
T5C0.039
T6C0.040
T7C0.045
T8C0.120
%
G90
G05
M72
T1
X1.575Y-4.35
X2.05Y-3.05
X2.175Y-1.9
X2.225Y-2.65
X2.3Y-4.05
X2.4Y-2.575
X2.475Y-4.15
X2.575Y-2.475
X2.65Y-4.25
X2.725Y-2.175
X3.45Y-4.875
X3.45Y-5.05
X3.6Y-2.9
X4.225Y-1.875
X4.675Y-6.3
X5.775Y-5.65
X6.775Y-1.875
X7.125Y-3.1
X7.125Y-3.55
X7.25Y-3.175
X7.25Y-3.875
X7.35Y-3.25
X7.35Y-4.125
X7.375Y-2.7
X8.625Y-5.15
X8.775Y-2.475
X8.95Y-1.875
X9.8Y-2.325
T2
X1.6641Y-5.7875
X1.7625Y-5.7875
X2.0141Y-5.7875
X2.1125Y-5.7875
X2.775Y-3.7516
X2.775Y-3.85
X2.775Y-4.5516
X2.775Y-4.65
X3.Y-3.35
X3.Y-3.45
X3.Y-3.55
X3.Y-3.65
X3.Y-3.75
X3.Y-3.85
X3.Y-3.95
X3.Y-4.05
X3.Y-4.15
X3.Y-4.25
X3.Y-4.35
X3.Y-4.45
X3.Y-4.55
X3.Y-4.65
X3.3Y-3.35
X3.3Y-3.45
X3.3Y-3.55
X3.3Y-3.65
X3.3Y-3.75
X3.3Y-3.85
X3.3Y-3.95
X3.3Y-4.05
X3.3Y-4.15
X3.3Y-4.25
X3.3Y-4.35
X3.3Y-4.45
X3.3Y-4.55
X3.3Y-4.65
X3.5Y-3.45
X3.5984Y-3.45
X5.0141Y-5.1625
X5.1125Y-5.1625
X5.3891Y-5.1625
X5.4875Y-5.1625
X7.95Y-3.8266
X7.95Y-3.925
X7.95Y-4.6266
X7.95Y-4.725
X8.175Y-3.425
X8.175Y-3.525
X8.175Y-3.625
X8.175Y-3.725
X8.175Y-3.825
X8.175Y-3.925
X8.175Y-4.025
X8.175Y-4.125
X8.175Y-4.225
X8.175Y-4.325
X8.175Y-4.425
X8.175Y-4.525
X8.175Y-4.625
X8.175Y-4.725
X8.475Y-3.425
X8.475Y-3.525
X8.475Y-3.625
X8.475Y-3.725
X8.475Y-3.825
X8.475Y-3.925
X8.475Y-4.025
X8.475Y-4.125
X8.475Y-4.225
X8.475Y-4.325
X8.475Y-4.425
X8.475Y-4.525
X8.475Y-4.625
X8.475Y-4.725
X8.675Y-3.525
X8.7734Y-3.525
X9.2375Y-6.3891
X9.2375Y-6.4875
X9.5Y-6.1
X9.5Y-6.4
X9.5Y-6.7
X9.5Y-7.
X9.5984Y-6.1
X9.5984Y-7.
X9.6Y-6.4
X9.6Y-6.7
X9.7Y-6.4
X9.7Y-6.7
X9.8Y-6.4
X9.8Y-6.7
X9.8Y-7.
X9.8984Y-7.
X9.9Y-6.4
X9.9Y-6.7
X10.Y-6.4
X10.Y-6.7
X10.1Y-6.4
X10.1Y-6.7
X10.2Y-6.4
X10.2Y-6.7
X10.475Y-6.5
X10.475Y-6.5984
T3
X5.1Y-7.05
X5.1Y-7.15
T4
X1.25Y-3.575
X1.35Y-3.575
X1.6Y-1.075
X1.6Y-1.175
X3.3Y-5.55
X3.4Y-5.55
X3.5Y-5.55
X3.6Y-5.55
X3.7Y-5.55
X3.775Y-1.075
X3.775Y-1.175
X3.8Y-5.55
X4.35Y-6.925
X4.35Y-7.1219
X6.375Y-1.075
X6.375Y-1.175
X8.475Y-5.575
X8.525Y-1.075
X8.525Y-1.175
X8.575Y-5.575
X8.675Y-5.575
X8.775Y-5.575
X8.875Y-5.575
X8.975Y-5.575
X10.35Y-1.625
X10.45Y-1.625
T5
X4.7781Y-6.85
X5.1719Y-6.85
T6
X1.5125Y-2.2816
X1.5125Y-2.3895
X1.5125Y-2.4993
X1.5125Y-2.6076
X1.5125Y-2.7155
X1.5125Y-2.8257
X1.5125Y-2.9257
X1.6125Y-2.2277
X1.6125Y-2.3375
X1.6125Y-2.4426
X1.6125Y-2.5525
X1.6125Y-2.6627
X1.6125Y-2.7725
X1.6125Y-2.8777
X1.6125Y-2.9875
X2.175Y-1.425
X2.2368Y-1.325
X2.2848Y-1.425
X2.3368Y-1.325
X2.39Y-1.425
X2.447Y-1.325
X2.4998Y-1.425
X2.5549Y-1.325
X2.61Y-1.425
X2.6632Y-1.325
X2.7199Y-1.425
X2.773Y-1.325
X2.825Y-1.425
X2.8809Y-1.325
X2.9348Y-1.425
X4.35Y-1.425
X4.4118Y-1.325
X4.4598Y-1.425
X4.5118Y-1.325
X4.565Y-1.425
X4.622Y-1.325
X4.6748Y-1.425
X4.7299Y-1.325
X4.785Y-1.425
X4.8382Y-1.325
X4.8949Y-1.425
X4.948Y-1.325
X5.Y-1.425
X5.0559Y-1.325
X5.1098Y-1.425
X6.95Y-1.425
X7.0118Y-1.325
X7.0598Y-1.425
X7.1118Y-1.325
X7.165Y-1.425
X7.222Y-1.325
X7.2748Y-1.425
X7.3299Y-1.325
X7.385Y-1.425
X7.415Y-6.725
X7.4382Y-1.325
X7.4701Y-6.825
X7.4949Y-1.425
X7.5248Y-6.725
X7.548Y-1.325
X7.5799Y-6.825
X7.6Y-1.425
X7.635Y-6.725
X7.6559Y-1.325
X7.685Y-6.825
X7.7098Y-1.425
X7.7402Y-6.725
X7.7949Y-6.825
X7.85Y-6.725
X9.1Y-1.425
X9.1618Y-1.325
X9.2098Y-1.425
X9.2618Y-1.325
X9.315Y-1.425
X9.372Y-1.325
X9.4248Y-1.425
X9.4799Y-1.325
X9.535Y-1.425
X9.5882Y-1.325
X9.6449Y-1.425
X9.698Y-1.325
X9.75Y-1.425
X9.8059Y-1.325
X9.8598Y-1.425
X10.1Y-2.2
X10.1Y-2.3098
X10.1Y-2.415
X10.1Y-2.5248
X10.1Y-2.635
X10.1Y-2.7449
X10.1Y-2.85
X10.1Y-2.9598
X10.2Y-2.2618
X10.2Y-2.3618
X10.2Y-2.472
X10.2Y-2.5799
X10.2Y-2.6882
X10.2Y-2.798
X10.2Y-2.9059
T7
X1.7875Y-5.4875
X1.8875Y-5.4875
X1.9875Y-5.4875
X5.1375Y-4.8625
X5.2375Y-4.8625
X5.3375Y-4.8625
T8
X1.5125Y-3.2674
X1.5223Y-1.9473
X1.8951Y-1.325
X3.2152Y-1.3348
X4.0701Y-1.325
X5.3902Y-1.3348
X6.6701Y-1.325
X7.1299Y-6.825
X7.9902Y-1.3348
X8.1299Y-6.825
X8.8201Y-1.325
X10.1402Y-1.3348
X10.1902Y-3.2402
X10.2Y-1.9201
T4
X3.4888Y-6.8856G85X3.4888Y-6.9644
G05
X3.5675Y-7.11G85X3.6463Y-7.11
G05
X3.725Y-6.8856G85X3.725Y-6.9644
G05
T0
M30
