G04 #@! TF.FileFunction,Copper,L2,Bot,Signal*
%FSLAX46Y46*%
G04 Gerber Fmt 4.6, Leading zero omitted, Abs format (unit mm)*
G04 Created by KiCad (PCBNEW 4.0.7) date 12/26/17 17:51:00*
%MOMM*%
%LPD*%
G01*
G04 APERTURE LIST*
%ADD10C,0.100000*%
%ADD11R,1.600000X1.600000*%
%ADD12C,1.600000*%
%ADD13R,3.500000X3.500000*%
%ADD14R,1.800000X1.800000*%
%ADD15C,1.800000*%
%ADD16C,3.810000*%
%ADD17R,1.520000X1.520000*%
%ADD18C,1.520000*%
%ADD19O,3.010000X1.510000*%
%ADD20R,1.998980X1.998980*%
%ADD21O,2.032000X2.540000*%
%ADD22O,1.600000X1.600000*%
%ADD23R,1.600000X2.400000*%
%ADD24O,1.600000X2.400000*%
%ADD25C,0.600000*%
%ADD26C,1.270000*%
%ADD27C,1.905000*%
%ADD28C,2.540000*%
%ADD29C,3.810000*%
G04 APERTURE END LIST*
D10*
D11*
X146005000Y-85480000D03*
D12*
X143505000Y-85480000D03*
D11*
X139655000Y-85480000D03*
D12*
X137155000Y-85480000D03*
D11*
X206965000Y-85480000D03*
D12*
X204465000Y-85480000D03*
D11*
X108540000Y-105800000D03*
D12*
X108540000Y-108300000D03*
D11*
X200615000Y-85480000D03*
D12*
X198115000Y-85480000D03*
D13*
X168230000Y-66430000D03*
X168230000Y-60430000D03*
X163530000Y-63430000D03*
X72980000Y-66430000D03*
X72980000Y-60430000D03*
X68280000Y-63430000D03*
D14*
X175850000Y-63890000D03*
D15*
X178390000Y-63890000D03*
D16*
X230460000Y-94880000D03*
X230460000Y-69480000D03*
D17*
X227920000Y-76590000D03*
D18*
X227920000Y-79380000D03*
X227920000Y-82050000D03*
X227920000Y-84850000D03*
X227920000Y-87640000D03*
X230460000Y-77990000D03*
X230460000Y-80780000D03*
X230460000Y-83450000D03*
X230460000Y-86240000D03*
D16*
X71960000Y-141110000D03*
X105490000Y-141360000D03*
D17*
X98380000Y-138820000D03*
D18*
X95590000Y-138820000D03*
X92920000Y-138820000D03*
X90130000Y-138820000D03*
X87330000Y-138820000D03*
X84540000Y-138820000D03*
X81870000Y-138820000D03*
X79080000Y-138820000D03*
X96810000Y-141360000D03*
X94270000Y-141360000D03*
X91470000Y-141360000D03*
X88730000Y-141360000D03*
X85980000Y-141360000D03*
X83190000Y-141360000D03*
X80450000Y-141360000D03*
D16*
X183720000Y-141110000D03*
X217250000Y-141360000D03*
D17*
X210140000Y-138820000D03*
D18*
X207350000Y-138820000D03*
X204680000Y-138820000D03*
X201890000Y-138820000D03*
X199090000Y-138820000D03*
X196300000Y-138820000D03*
X193630000Y-138820000D03*
X190840000Y-138820000D03*
X208570000Y-141360000D03*
X206030000Y-141360000D03*
X203230000Y-141360000D03*
X200490000Y-141360000D03*
X197740000Y-141360000D03*
X194950000Y-141360000D03*
X192210000Y-141360000D03*
D16*
X127840000Y-141110000D03*
X161370000Y-141360000D03*
D17*
X154260000Y-138820000D03*
D18*
X151470000Y-138820000D03*
X148800000Y-138820000D03*
X146010000Y-138820000D03*
X143210000Y-138820000D03*
X140420000Y-138820000D03*
X137750000Y-138820000D03*
X134960000Y-138820000D03*
X152690000Y-141360000D03*
X150150000Y-141360000D03*
X147350000Y-141360000D03*
X144610000Y-141360000D03*
X141860000Y-141360000D03*
X139070000Y-141360000D03*
X136330000Y-141360000D03*
D16*
X230460000Y-133360000D03*
X230460000Y-107960000D03*
D17*
X227920000Y-126120000D03*
D18*
X227920000Y-123330000D03*
X227920000Y-120530000D03*
X227920000Y-117870000D03*
X227920000Y-115070000D03*
X230460000Y-116470000D03*
X230460000Y-119260000D03*
X230460000Y-121930000D03*
X230460000Y-124720000D03*
D19*
X45040000Y-85480000D03*
X45040000Y-88020000D03*
X45040000Y-90560000D03*
X45040000Y-93100000D03*
X45040000Y-95640000D03*
X45040000Y-98180000D03*
D20*
X168308740Y-70240000D03*
X178311260Y-70240000D03*
D21*
X141560000Y-79765000D03*
X144100000Y-79765000D03*
X139020000Y-79765000D03*
D11*
X95840000Y-85480000D03*
D22*
X103460000Y-118500000D03*
X95840000Y-88020000D03*
X103460000Y-115960000D03*
X95840000Y-90560000D03*
X103460000Y-113420000D03*
X95840000Y-93100000D03*
X103460000Y-110880000D03*
X95840000Y-95640000D03*
X103460000Y-108340000D03*
X95840000Y-98180000D03*
X103460000Y-105800000D03*
X95840000Y-100720000D03*
X103460000Y-103260000D03*
X95840000Y-103260000D03*
X103460000Y-100720000D03*
X95840000Y-105800000D03*
X103460000Y-98180000D03*
X95840000Y-108340000D03*
X103460000Y-95640000D03*
X95840000Y-110880000D03*
X103460000Y-93100000D03*
X95840000Y-113420000D03*
X103460000Y-90560000D03*
X95840000Y-115960000D03*
X103460000Y-88020000D03*
X95840000Y-118500000D03*
X103460000Y-85480000D03*
D21*
X202520000Y-79765000D03*
X205060000Y-79765000D03*
X199980000Y-79765000D03*
D23*
X165690000Y-113420000D03*
D24*
X183470000Y-105800000D03*
X168230000Y-113420000D03*
X180930000Y-105800000D03*
X170770000Y-113420000D03*
X178390000Y-105800000D03*
X173310000Y-113420000D03*
X175850000Y-105800000D03*
X175850000Y-113420000D03*
X173310000Y-105800000D03*
X178390000Y-113420000D03*
X170770000Y-105800000D03*
X180930000Y-113420000D03*
X168230000Y-105800000D03*
X183470000Y-113420000D03*
X165690000Y-105800000D03*
D11*
X98380000Y-124850000D03*
D12*
X100880000Y-124850000D03*
D11*
X108540000Y-85480000D03*
D12*
X108540000Y-87980000D03*
D11*
X166960000Y-119770000D03*
D12*
X169460000Y-119770000D03*
D11*
X173310000Y-119770000D03*
D12*
X175810000Y-119770000D03*
D11*
X159340000Y-110880000D03*
D12*
X159340000Y-108380000D03*
D11*
X189820000Y-108340000D03*
D12*
X189820000Y-110840000D03*
D11*
X165690000Y-100720000D03*
D12*
X168190000Y-100720000D03*
D25*
X60280000Y-90560000D03*
X61550000Y-98180000D03*
X146640000Y-128660000D03*
X113620000Y-85480000D03*
X65360000Y-80400000D03*
X60280000Y-85480000D03*
X113620000Y-123580000D03*
X211410000Y-115960000D03*
X203790000Y-115960000D03*
X207600000Y-96910000D03*
X56470000Y-113420000D03*
X67900000Y-98180000D03*
X69170000Y-90560000D03*
X80600000Y-110880000D03*
X89490000Y-110880000D03*
X144100000Y-105800000D03*
X141560000Y-100720000D03*
X179660000Y-133740000D03*
X136480000Y-107070000D03*
X140290000Y-105800000D03*
X121240000Y-121040000D03*
X119970000Y-113420000D03*
X117430000Y-121040000D03*
X116160000Y-110880000D03*
X186055000Y-120015000D03*
X180975000Y-118745000D03*
X173310000Y-90560000D03*
X183470000Y-96910000D03*
X177120000Y-90560000D03*
D26*
X61550000Y-98180000D02*
X60280000Y-96910000D01*
X60280000Y-96910000D02*
X60280000Y-90560000D01*
D27*
X137155000Y-85480000D02*
X137155000Y-81630000D01*
X137155000Y-81630000D02*
X139020000Y-79765000D01*
X139020000Y-79765000D02*
X139020000Y-80995000D01*
X139020000Y-80995000D02*
X143505000Y-85480000D01*
X219030000Y-108340000D02*
X219030000Y-107070000D01*
X227920000Y-90560000D02*
X219030000Y-99450000D01*
X219030000Y-99450000D02*
X219030000Y-107070000D01*
X227920000Y-90560000D02*
X227920000Y-87640000D01*
X227920000Y-115070000D02*
X225760000Y-115070000D01*
X219030000Y-108340000D02*
X199980000Y-108340000D01*
X225760000Y-115070000D02*
X219030000Y-108340000D01*
X189820000Y-108340000D02*
X199980000Y-108340000D01*
X199980000Y-108340000D02*
X203790000Y-108340000D01*
X203790000Y-108340000D02*
X202520000Y-108340000D01*
X202520000Y-108340000D02*
X202520000Y-107070000D01*
X198115000Y-85480000D02*
X198115000Y-102665000D01*
X198115000Y-102665000D02*
X202520000Y-107070000D01*
X202520000Y-107070000D02*
X203790000Y-108340000D01*
X207350000Y-125100000D02*
X207350000Y-111900000D01*
X207350000Y-111900000D02*
X203790000Y-108340000D01*
X199090000Y-138820000D02*
X199090000Y-133360000D01*
X199090000Y-133360000D02*
X207350000Y-125100000D01*
X207350000Y-125100000D02*
X207350000Y-128660000D01*
X207350000Y-128660000D02*
X207350000Y-138820000D01*
X199980000Y-79765000D02*
X199980000Y-80995000D01*
X199980000Y-80995000D02*
X204465000Y-85480000D01*
X198115000Y-85480000D02*
X198115000Y-81630000D01*
X198115000Y-81630000D02*
X199980000Y-79765000D01*
D28*
X163530000Y-63430000D02*
X163530000Y-71890000D01*
X163530000Y-71890000D02*
X177120000Y-85480000D01*
X177120000Y-85480000D02*
X197440000Y-85480000D01*
X197440000Y-85480000D02*
X198115000Y-85480000D01*
D27*
X143210000Y-138820000D02*
X143210000Y-132090000D01*
X143210000Y-132090000D02*
X146640000Y-128660000D01*
X95590000Y-138820000D02*
X95590000Y-130950000D01*
X95590000Y-130950000D02*
X94570000Y-129930000D01*
X95840000Y-103260000D02*
X97030000Y-103260000D01*
X97030000Y-103260000D02*
X100880000Y-107110000D01*
X108540000Y-87980000D02*
X111120000Y-87980000D01*
X111120000Y-87980000D02*
X113620000Y-85480000D01*
X87330000Y-138820000D02*
X87330000Y-137170000D01*
X100920000Y-127390000D02*
X100920000Y-124890000D01*
X98380000Y-129930000D02*
X100920000Y-127390000D01*
X94570000Y-129930000D02*
X98380000Y-129930000D01*
X87330000Y-137170000D02*
X94570000Y-129930000D01*
X100920000Y-124890000D02*
X100880000Y-124850000D01*
X103460000Y-108340000D02*
X108500000Y-108340000D01*
X108500000Y-108340000D02*
X108540000Y-108300000D01*
X100880000Y-124850000D02*
X100880000Y-107110000D01*
X100880000Y-107110000D02*
X100920000Y-107070000D01*
X103460000Y-88020000D02*
X102190000Y-88020000D01*
X102190000Y-108340000D02*
X103460000Y-108340000D01*
X100920000Y-107070000D02*
X102190000Y-108340000D01*
X100920000Y-89290000D02*
X100920000Y-107070000D01*
X102190000Y-88020000D02*
X100920000Y-89290000D01*
X108540000Y-87980000D02*
X103500000Y-87980000D01*
X103500000Y-87980000D02*
X103460000Y-88020000D01*
D26*
X60280000Y-85480000D02*
X65360000Y-80400000D01*
D27*
X152990000Y-108340000D02*
X159300000Y-108340000D01*
X137750000Y-123580000D02*
X152990000Y-108340000D01*
X113620000Y-123580000D02*
X137750000Y-123580000D01*
X159300000Y-108340000D02*
X159340000Y-108380000D01*
X210140000Y-138820000D02*
X210140000Y-137550000D01*
X210140000Y-117230000D02*
X211410000Y-115960000D01*
X210140000Y-117230000D02*
X210140000Y-137550000D01*
X98380000Y-138820000D02*
X111080000Y-126120000D01*
X111080000Y-126120000D02*
X169500000Y-126120000D01*
X154260000Y-138820000D02*
X166960000Y-126120000D01*
X193630000Y-126120000D02*
X203790000Y-115960000D01*
X166960000Y-126120000D02*
X169500000Y-126120000D01*
X169500000Y-126120000D02*
X193630000Y-126120000D01*
X200615000Y-85480000D02*
X200615000Y-89925000D01*
X200615000Y-89925000D02*
X207600000Y-96910000D01*
X72980000Y-66430000D02*
X72980000Y-68970000D01*
D29*
X56470000Y-77860000D02*
X56470000Y-113420000D01*
X60280000Y-74050000D02*
X56470000Y-77860000D01*
X67900000Y-74050000D02*
X60280000Y-74050000D01*
X72980000Y-68970000D02*
X67900000Y-74050000D01*
D27*
X88730000Y-141360000D02*
X91470000Y-141360000D01*
X91470000Y-141360000D02*
X90760000Y-142070000D01*
D29*
X85680000Y-146440000D02*
X89490000Y-142630000D01*
D27*
X90050000Y-142070000D02*
X89490000Y-142630000D01*
X90760000Y-142070000D02*
X90050000Y-142070000D01*
X200490000Y-141360000D02*
X203230000Y-141360000D01*
X203230000Y-141360000D02*
X202520000Y-142070000D01*
X202520000Y-142070000D02*
X201810000Y-142070000D01*
X201810000Y-142070000D02*
X201250000Y-142630000D01*
X144610000Y-141360000D02*
X147350000Y-141360000D01*
X147350000Y-141360000D02*
X146640000Y-142070000D01*
X146640000Y-142070000D02*
X145930000Y-142070000D01*
X145930000Y-142070000D02*
X145370000Y-142630000D01*
D29*
X141560000Y-146440000D02*
X197440000Y-146440000D01*
X197440000Y-146440000D02*
X201250000Y-142630000D01*
X85680000Y-146440000D02*
X141560000Y-146440000D01*
X141560000Y-146440000D02*
X145370000Y-142630000D01*
X68280000Y-63430000D02*
X62010000Y-63430000D01*
X67900000Y-146440000D02*
X85680000Y-146440000D01*
X50120000Y-128660000D02*
X67900000Y-146440000D01*
X50259258Y-75240231D02*
X50120000Y-128660000D01*
X62010000Y-63430000D02*
X50259258Y-75240231D01*
D27*
X91470000Y-141360000D02*
X90760000Y-141360000D01*
D26*
X67900000Y-91830000D02*
X67900000Y-98180000D01*
X69170000Y-90560000D02*
X67900000Y-91830000D01*
D27*
X89490000Y-110880000D02*
X80600000Y-110880000D01*
X144100000Y-103260000D02*
X144100000Y-105800000D01*
X141560000Y-100720000D02*
X144100000Y-103260000D01*
X103460000Y-98180000D02*
X127590000Y-98180000D01*
X193630000Y-136280000D02*
X193630000Y-138820000D01*
X191090000Y-133740000D02*
X193630000Y-136280000D01*
X179660000Y-133740000D02*
X191090000Y-133740000D01*
X127590000Y-98180000D02*
X136480000Y-107070000D01*
X103460000Y-95640000D02*
X130130000Y-95640000D01*
X130130000Y-95640000D02*
X140290000Y-105800000D01*
X121240000Y-114690000D02*
X121240000Y-121040000D01*
X119970000Y-113420000D02*
X121240000Y-114690000D01*
X117430000Y-112150000D02*
X117430000Y-121040000D01*
X116160000Y-110880000D02*
X117430000Y-112150000D01*
D26*
X182245000Y-120015000D02*
X186055000Y-120015000D01*
X180975000Y-118745000D02*
X182245000Y-120015000D01*
D27*
X175850000Y-105800000D02*
X175850000Y-104530000D01*
X79330000Y-98180000D02*
X75520000Y-94370000D01*
X75520000Y-94370000D02*
X75520000Y-84210000D01*
X75520000Y-84210000D02*
X80600000Y-79130000D01*
X80600000Y-79130000D02*
X122510000Y-79130000D01*
X122510000Y-79130000D02*
X137750000Y-94370000D01*
X137750000Y-94370000D02*
X169500000Y-94370000D01*
X169500000Y-94370000D02*
X175850000Y-100720000D01*
X175850000Y-100720000D02*
X175850000Y-104530000D01*
X79330000Y-98180000D02*
X95840000Y-98180000D01*
X95840000Y-100720000D02*
X78060000Y-100720000D01*
X178390000Y-99450000D02*
X178390000Y-105800000D01*
X170770000Y-91830000D02*
X178390000Y-99450000D01*
X139020000Y-91830000D02*
X170770000Y-91830000D01*
X123780000Y-76590000D02*
X139020000Y-91830000D01*
X79330000Y-76590000D02*
X123780000Y-76590000D01*
X72980000Y-82940000D02*
X79330000Y-76590000D01*
X72980000Y-95640000D02*
X72980000Y-82940000D01*
X78060000Y-100720000D02*
X72980000Y-95640000D01*
X180930000Y-98180000D02*
X180930000Y-105800000D01*
X173310000Y-90560000D02*
X180930000Y-98180000D01*
X177120000Y-90560000D02*
X183470000Y-96910000D01*
M02*
