G04 #@! TF.FileFunction,Copper,L1,Top,Signal*
%FSLAX46Y46*%
G04 Gerber Fmt 4.6, Leading zero omitted, Abs format (unit mm)*
G04 Created by KiCad (PCBNEW 4.0.7) date 12/26/17 17:51:00*
%MOMM*%
%LPD*%
G01*
G04 APERTURE LIST*
%ADD10C,0.100000*%
%ADD11R,1.600000X1.600000*%
%ADD12C,1.600000*%
%ADD13R,3.500000X3.500000*%
%ADD14R,1.500000X1.500000*%
%ADD15R,1.800000X1.800000*%
%ADD16C,1.800000*%
%ADD17C,3.810000*%
%ADD18R,1.520000X1.520000*%
%ADD19C,1.520000*%
%ADD20O,3.010000X1.510000*%
%ADD21R,1.700000X2.000000*%
%ADD22R,2.000000X1.700000*%
%ADD23R,1.998980X1.998980*%
%ADD24O,2.032000X2.540000*%
%ADD25O,1.600000X1.600000*%
%ADD26R,1.600000X2.400000*%
%ADD27O,1.600000X2.400000*%
%ADD28C,0.600000*%
%ADD29C,1.905000*%
%ADD30C,2.540000*%
%ADD31C,1.270000*%
%ADD32C,3.810000*%
G04 APERTURE END LIST*
D10*
D11*
X146005000Y-85480000D03*
D12*
X143505000Y-85480000D03*
D11*
X139655000Y-85480000D03*
D12*
X137155000Y-85480000D03*
D11*
X206965000Y-85480000D03*
D12*
X204465000Y-85480000D03*
D11*
X108540000Y-105800000D03*
D12*
X108540000Y-108300000D03*
D11*
X200615000Y-85480000D03*
D12*
X198115000Y-85480000D03*
D13*
X168230000Y-66430000D03*
X168230000Y-60430000D03*
X163530000Y-63430000D03*
X72980000Y-66430000D03*
X72980000Y-60430000D03*
X68280000Y-63430000D03*
D14*
X67010000Y-88020000D03*
X63710000Y-88020000D03*
X67010000Y-98180000D03*
X63710000Y-98180000D03*
X67010000Y-107070000D03*
X63710000Y-107070000D03*
D15*
X175850000Y-63890000D03*
D16*
X178390000Y-63890000D03*
D17*
X230460000Y-94880000D03*
X230460000Y-69480000D03*
D18*
X227920000Y-76590000D03*
D19*
X227920000Y-79380000D03*
X227920000Y-82050000D03*
X227920000Y-84850000D03*
X227920000Y-87640000D03*
X230460000Y-77990000D03*
X230460000Y-80780000D03*
X230460000Y-83450000D03*
X230460000Y-86240000D03*
D17*
X71960000Y-141110000D03*
X105490000Y-141360000D03*
D18*
X98380000Y-138820000D03*
D19*
X95590000Y-138820000D03*
X92920000Y-138820000D03*
X90130000Y-138820000D03*
X87330000Y-138820000D03*
X84540000Y-138820000D03*
X81870000Y-138820000D03*
X79080000Y-138820000D03*
X96810000Y-141360000D03*
X94270000Y-141360000D03*
X91470000Y-141360000D03*
X88730000Y-141360000D03*
X85980000Y-141360000D03*
X83190000Y-141360000D03*
X80450000Y-141360000D03*
D17*
X183720000Y-141110000D03*
X217250000Y-141360000D03*
D18*
X210140000Y-138820000D03*
D19*
X207350000Y-138820000D03*
X204680000Y-138820000D03*
X201890000Y-138820000D03*
X199090000Y-138820000D03*
X196300000Y-138820000D03*
X193630000Y-138820000D03*
X190840000Y-138820000D03*
X208570000Y-141360000D03*
X206030000Y-141360000D03*
X203230000Y-141360000D03*
X200490000Y-141360000D03*
X197740000Y-141360000D03*
X194950000Y-141360000D03*
X192210000Y-141360000D03*
D17*
X127840000Y-141110000D03*
X161370000Y-141360000D03*
D18*
X154260000Y-138820000D03*
D19*
X151470000Y-138820000D03*
X148800000Y-138820000D03*
X146010000Y-138820000D03*
X143210000Y-138820000D03*
X140420000Y-138820000D03*
X137750000Y-138820000D03*
X134960000Y-138820000D03*
X152690000Y-141360000D03*
X150150000Y-141360000D03*
X147350000Y-141360000D03*
X144610000Y-141360000D03*
X141860000Y-141360000D03*
X139070000Y-141360000D03*
X136330000Y-141360000D03*
D17*
X230460000Y-133360000D03*
X230460000Y-107960000D03*
D18*
X227920000Y-126120000D03*
D19*
X227920000Y-123330000D03*
X227920000Y-120530000D03*
X227920000Y-117870000D03*
X227920000Y-115070000D03*
X230460000Y-116470000D03*
X230460000Y-119260000D03*
X230460000Y-121930000D03*
X230460000Y-124720000D03*
D20*
X45040000Y-85480000D03*
X45040000Y-88020000D03*
X45040000Y-90560000D03*
X45040000Y-93100000D03*
X45040000Y-95640000D03*
X45040000Y-98180000D03*
D21*
X51390000Y-87480000D03*
X51390000Y-83480000D03*
D22*
X92760000Y-88020000D03*
X88760000Y-88020000D03*
X92760000Y-90560000D03*
X88760000Y-90560000D03*
X92760000Y-105800000D03*
X88760000Y-105800000D03*
D10*
G36*
X169146940Y-71438880D02*
X169146940Y-69041120D01*
X172647060Y-69439900D01*
X172647060Y-71040100D01*
X169146940Y-71438880D01*
X169146940Y-71438880D01*
G37*
G36*
X177473060Y-69041120D02*
X177473060Y-71438880D01*
X173972940Y-71040100D01*
X173972940Y-69439900D01*
X177473060Y-69041120D01*
X177473060Y-69041120D01*
G37*
D23*
X168308740Y-70240000D03*
X178311260Y-70240000D03*
D24*
X141560000Y-79765000D03*
X144100000Y-79765000D03*
X139020000Y-79765000D03*
D11*
X95840000Y-85480000D03*
D25*
X103460000Y-118500000D03*
X95840000Y-88020000D03*
X103460000Y-115960000D03*
X95840000Y-90560000D03*
X103460000Y-113420000D03*
X95840000Y-93100000D03*
X103460000Y-110880000D03*
X95840000Y-95640000D03*
X103460000Y-108340000D03*
X95840000Y-98180000D03*
X103460000Y-105800000D03*
X95840000Y-100720000D03*
X103460000Y-103260000D03*
X95840000Y-103260000D03*
X103460000Y-100720000D03*
X95840000Y-105800000D03*
X103460000Y-98180000D03*
X95840000Y-108340000D03*
X103460000Y-95640000D03*
X95840000Y-110880000D03*
X103460000Y-93100000D03*
X95840000Y-113420000D03*
X103460000Y-90560000D03*
X95840000Y-115960000D03*
X103460000Y-88020000D03*
X95840000Y-118500000D03*
X103460000Y-85480000D03*
D24*
X202520000Y-79765000D03*
X205060000Y-79765000D03*
X199980000Y-79765000D03*
D26*
X165690000Y-113420000D03*
D27*
X183470000Y-105800000D03*
X168230000Y-113420000D03*
X180930000Y-105800000D03*
X170770000Y-113420000D03*
X178390000Y-105800000D03*
X173310000Y-113420000D03*
X175850000Y-105800000D03*
X175850000Y-113420000D03*
X173310000Y-105800000D03*
X178390000Y-113420000D03*
X170770000Y-105800000D03*
X180930000Y-113420000D03*
X168230000Y-105800000D03*
X183470000Y-113420000D03*
X165690000Y-105800000D03*
D11*
X98380000Y-124850000D03*
D12*
X100880000Y-124850000D03*
D11*
X108540000Y-85480000D03*
D12*
X108540000Y-87980000D03*
D11*
X166960000Y-119770000D03*
D12*
X169460000Y-119770000D03*
D11*
X173310000Y-119770000D03*
D12*
X175810000Y-119770000D03*
D11*
X159340000Y-110880000D03*
D12*
X159340000Y-108380000D03*
D11*
X189820000Y-108340000D03*
D12*
X189820000Y-110840000D03*
D11*
X165690000Y-100720000D03*
D12*
X168190000Y-100720000D03*
D28*
X60280000Y-90560000D03*
X61550000Y-98180000D03*
X146640000Y-128660000D03*
X113620000Y-85480000D03*
X65360000Y-80400000D03*
X60280000Y-85480000D03*
X113620000Y-123580000D03*
X211410000Y-115960000D03*
X203790000Y-115960000D03*
X207600000Y-96910000D03*
X56470000Y-113420000D03*
X67900000Y-98180000D03*
X69170000Y-90560000D03*
X80600000Y-110880000D03*
X89490000Y-110880000D03*
X144100000Y-105800000D03*
X141560000Y-100720000D03*
X179660000Y-133740000D03*
X136480000Y-107070000D03*
X140290000Y-105800000D03*
X121240000Y-121040000D03*
X119970000Y-113420000D03*
X117430000Y-121040000D03*
X116160000Y-110880000D03*
X186055000Y-120015000D03*
X180975000Y-118745000D03*
X173310000Y-90560000D03*
X183470000Y-96910000D03*
X177120000Y-90560000D03*
D29*
X205060000Y-79765000D02*
X205695000Y-79765000D01*
X205695000Y-79765000D02*
X206965000Y-81035000D01*
X206965000Y-81035000D02*
X206965000Y-85480000D01*
X168308740Y-70240000D02*
X170897000Y-70240000D01*
X144100000Y-79765000D02*
X144100000Y-80400000D01*
X144100000Y-80400000D02*
X146005000Y-82305000D01*
X146005000Y-82305000D02*
X146005000Y-85480000D01*
X168308740Y-70240000D02*
X168308740Y-72701260D01*
X155530000Y-85480000D02*
X146005000Y-85480000D01*
X168308740Y-72701260D02*
X155530000Y-85480000D01*
X206965000Y-85480000D02*
X207600000Y-85480000D01*
X207600000Y-85480000D02*
X211410000Y-81670000D01*
X211410000Y-81670000D02*
X211410000Y-75320000D01*
X211410000Y-75320000D02*
X210140000Y-74050000D01*
X210140000Y-74050000D02*
X169500000Y-74050000D01*
X169500000Y-74050000D02*
X168308740Y-72858740D01*
X168308740Y-72858740D02*
X168308740Y-70240000D01*
D30*
X168308740Y-70240000D02*
X168308740Y-70318740D01*
X168230000Y-66430000D02*
X168230000Y-70240000D01*
D29*
X168230000Y-66430000D02*
X168230000Y-70161260D01*
X168230000Y-70161260D02*
X168308740Y-70240000D01*
X95840000Y-103260000D02*
X64090000Y-103260000D01*
X61550000Y-100720000D02*
X61550000Y-98180000D01*
X64090000Y-103260000D02*
X61550000Y-100720000D01*
D31*
X63710000Y-107070000D02*
X62820000Y-107070000D01*
X62820000Y-107070000D02*
X61550000Y-105800000D01*
X61550000Y-105800000D02*
X61550000Y-98180000D01*
X63710000Y-98180000D02*
X61550000Y-98180000D01*
X45040000Y-90560000D02*
X60280000Y-90560000D01*
X60280000Y-90560000D02*
X61170000Y-90560000D01*
X61170000Y-90560000D02*
X63710000Y-88020000D01*
D29*
X168190000Y-100720000D02*
X168190000Y-105760000D01*
X168190000Y-105760000D02*
X168230000Y-105800000D01*
X139020000Y-79765000D02*
X139020000Y-71510000D01*
X147100000Y-63430000D02*
X163530000Y-63430000D01*
X139020000Y-71510000D02*
X147100000Y-63430000D01*
D30*
X168230000Y-60430000D02*
X166530000Y-60430000D01*
X166530000Y-60430000D02*
X163530000Y-63430000D01*
D29*
X175850000Y-63890000D02*
X173310000Y-61350000D01*
X173310000Y-61350000D02*
X169150000Y-61350000D01*
X169150000Y-61350000D02*
X168230000Y-60430000D01*
D31*
X168230000Y-105800000D02*
X168230000Y-107070000D01*
X169500000Y-108340000D02*
X189820000Y-108340000D01*
X168230000Y-107070000D02*
X169500000Y-108340000D01*
X168190000Y-105760000D02*
X168230000Y-105800000D01*
D29*
X151470000Y-138820000D02*
X151470000Y-133490000D01*
X126280000Y-108300000D02*
X108540000Y-108300000D01*
X151470000Y-133490000D02*
X146640000Y-128660000D01*
X146640000Y-128660000D02*
X126280000Y-108300000D01*
X113620000Y-85480000D02*
X137549998Y-85480000D01*
X137549998Y-85480000D02*
X137155000Y-85480000D01*
X108500000Y-108340000D02*
X108540000Y-108300000D01*
D31*
X51390000Y-87480000D02*
X58280000Y-87480000D01*
X98380000Y-80400000D02*
X103460000Y-85480000D01*
X65360000Y-80400000D02*
X98380000Y-80400000D01*
X58280000Y-87480000D02*
X60280000Y-85480000D01*
X45040000Y-88020000D02*
X50850000Y-88020000D01*
X50850000Y-88020000D02*
X51390000Y-87480000D01*
D29*
X98380000Y-124850000D02*
X98380000Y-122310000D01*
X112350000Y-122310000D02*
X113620000Y-123580000D01*
X98380000Y-122310000D02*
X112350000Y-122310000D01*
X165690000Y-100720000D02*
X165690000Y-105800000D01*
X108540000Y-85480000D02*
X109810000Y-85480000D01*
X139655000Y-87385000D02*
X139655000Y-85480000D01*
X137750000Y-89290000D02*
X139655000Y-87385000D01*
X113620000Y-89290000D02*
X137750000Y-89290000D01*
X109810000Y-85480000D02*
X113620000Y-89290000D01*
X103460000Y-85480000D02*
X100920000Y-85480000D01*
X100920000Y-85480000D02*
X98380000Y-88020000D01*
X98380000Y-88020000D02*
X98380000Y-117230000D01*
X95840000Y-115960000D02*
X97110000Y-115960000D01*
X97110000Y-115960000D02*
X98380000Y-117230000D01*
X98380000Y-117230000D02*
X98380000Y-124850000D01*
X103460000Y-85480000D02*
X108540000Y-85480000D01*
X139655000Y-85480000D02*
X139655000Y-83575000D01*
X139655000Y-83575000D02*
X141560000Y-81670000D01*
X141560000Y-81670000D02*
X141560000Y-79765000D01*
D31*
X159340000Y-108380000D02*
X159340000Y-108340000D01*
X159340000Y-108340000D02*
X161880000Y-105800000D01*
X161880000Y-105800000D02*
X165690000Y-105800000D01*
D29*
X103460000Y-105800000D02*
X108540000Y-105800000D01*
X203790000Y-115960000D02*
X211410000Y-115960000D01*
X211410000Y-100720000D02*
X211410000Y-115960000D01*
X207600000Y-96910000D02*
X211410000Y-100720000D01*
X202520000Y-79765000D02*
X202520000Y-83575000D01*
X202520000Y-83575000D02*
X200615000Y-85480000D01*
D31*
X165690000Y-113420000D02*
X165690000Y-118500000D01*
X165690000Y-118500000D02*
X166960000Y-119770000D01*
X170770000Y-113420000D02*
X170770000Y-118460000D01*
X170770000Y-118460000D02*
X169460000Y-119770000D01*
X173310000Y-113420000D02*
X173310000Y-119770000D01*
X175850000Y-113420000D02*
X175850000Y-119730000D01*
X175850000Y-119730000D02*
X175810000Y-119770000D01*
X159340000Y-110880000D02*
X166960000Y-110880000D01*
X168230000Y-112150000D02*
X168230000Y-113420000D01*
X166960000Y-110880000D02*
X168230000Y-112150000D01*
X189820000Y-110840000D02*
X179700000Y-110840000D01*
X178390000Y-112150000D02*
X178390000Y-113420000D01*
X179700000Y-110840000D02*
X178390000Y-112150000D01*
D32*
X56470000Y-132470000D02*
X56470000Y-136280000D01*
X56470000Y-136280000D02*
X66630000Y-146440000D01*
X66630000Y-146440000D02*
X90760000Y-146440000D01*
X56470000Y-113420000D02*
X56470000Y-132470000D01*
D29*
X206030000Y-141360000D02*
X208570000Y-141360000D01*
X150150000Y-141360000D02*
X152690000Y-141360000D01*
D32*
X147910000Y-146440000D02*
X203790000Y-146440000D01*
X203790000Y-146440000D02*
X207600000Y-142630000D01*
X91730000Y-146440000D02*
X147910000Y-146440000D01*
X147910000Y-146440000D02*
X151720000Y-142630000D01*
D29*
X94270000Y-141360000D02*
X96810000Y-141360000D01*
X96810000Y-141360000D02*
X91730000Y-146440000D01*
X91730000Y-146440000D02*
X90760000Y-146440000D01*
X90760000Y-146440000D02*
X95840000Y-141360000D01*
D32*
X72980000Y-60430000D02*
X71280000Y-60430000D01*
X71280000Y-60430000D02*
X68280000Y-63430000D01*
D31*
X67010000Y-88020000D02*
X88760000Y-88020000D01*
X88760000Y-90560000D02*
X69170000Y-90560000D01*
X67900000Y-98180000D02*
X67010000Y-98180000D01*
X67010000Y-107070000D02*
X67900000Y-107070000D01*
X69170000Y-105800000D02*
X88760000Y-105800000D01*
X67900000Y-107070000D02*
X69170000Y-105800000D01*
D29*
X175723000Y-70240000D02*
X178311260Y-70240000D01*
X178311260Y-70240000D02*
X178311260Y-63968740D01*
X178311260Y-63968740D02*
X178390000Y-63890000D01*
X170770000Y-105800000D02*
X170770000Y-101990000D01*
X223860000Y-79380000D02*
X227920000Y-79380000D01*
X213950000Y-89290000D02*
X223860000Y-79380000D01*
X183470000Y-89290000D02*
X213950000Y-89290000D01*
X170770000Y-101990000D02*
X183470000Y-89290000D01*
X173310000Y-105800000D02*
X173310000Y-103260000D01*
X225000000Y-82050000D02*
X227920000Y-82050000D01*
X213950000Y-93100000D02*
X225000000Y-82050000D01*
X183470000Y-93100000D02*
X213950000Y-93100000D01*
X173310000Y-103260000D02*
X183470000Y-93100000D01*
X90130000Y-138820000D02*
X90130000Y-124210000D01*
X90130000Y-124210000D02*
X95840000Y-118500000D01*
X95840000Y-113420000D02*
X86950000Y-113420000D01*
X84540000Y-115830000D02*
X84540000Y-138820000D01*
X86950000Y-113420000D02*
X84540000Y-115830000D01*
X95840000Y-108340000D02*
X88220000Y-108340000D01*
X81870000Y-114690000D02*
X81870000Y-138820000D01*
X88220000Y-108340000D02*
X81870000Y-114690000D01*
X95840000Y-110880000D02*
X89490000Y-110880000D01*
X79080000Y-112400000D02*
X79080000Y-138820000D01*
X80600000Y-110880000D02*
X79080000Y-112400000D01*
X103460000Y-103260000D02*
X145370000Y-103260000D01*
X201890000Y-133110000D02*
X201890000Y-138820000D01*
X196170000Y-127390000D02*
X201890000Y-133110000D01*
X184740000Y-127390000D02*
X196170000Y-127390000D01*
X182200000Y-124850000D02*
X184740000Y-127390000D01*
X166960000Y-124850000D02*
X182200000Y-124850000D01*
X145370000Y-103260000D02*
X166960000Y-124850000D01*
X103460000Y-100720000D02*
X141560000Y-100720000D01*
X196300000Y-132600000D02*
X196300000Y-138820000D01*
X193630000Y-129930000D02*
X196300000Y-132600000D01*
X183470000Y-129930000D02*
X193630000Y-129930000D01*
X180930000Y-127390000D02*
X183470000Y-129930000D01*
X165690000Y-127390000D02*
X180930000Y-127390000D01*
X144100000Y-105800000D02*
X165690000Y-127390000D01*
X163150000Y-133740000D02*
X179660000Y-133740000D01*
X136480000Y-107070000D02*
X163150000Y-133740000D01*
X185760000Y-133740000D02*
X190840000Y-138820000D01*
X183470000Y-133740000D02*
X185760000Y-133740000D01*
X179660000Y-129930000D02*
X183470000Y-133740000D01*
X164420000Y-129930000D02*
X179660000Y-129930000D01*
X140290000Y-105800000D02*
X164420000Y-129930000D01*
X103460000Y-115960000D02*
X125050000Y-115960000D01*
X146010000Y-136920000D02*
X146010000Y-138820000D01*
X125050000Y-115960000D02*
X146010000Y-136920000D01*
X103460000Y-118500000D02*
X122510000Y-118500000D01*
X140420000Y-136410000D02*
X140420000Y-138820000D01*
X122510000Y-118500000D02*
X140420000Y-136410000D01*
X103460000Y-113420000D02*
X119970000Y-113420000D01*
X137750000Y-137550000D02*
X137750000Y-138820000D01*
X121240000Y-121040000D02*
X137750000Y-137550000D01*
X103460000Y-110880000D02*
X116160000Y-110880000D01*
X117430000Y-121040000D02*
X134960000Y-138570000D01*
X134960000Y-138570000D02*
X134960000Y-138820000D01*
D31*
X180930000Y-113420000D02*
X180930000Y-118700000D01*
X226695000Y-120015000D02*
X227210000Y-120530000D01*
X224155000Y-120015000D02*
X226695000Y-120015000D01*
X186055000Y-120015000D02*
X224155000Y-120015000D01*
X180930000Y-118700000D02*
X180975000Y-118745000D01*
X227210000Y-120530000D02*
X227920000Y-120530000D01*
X227920000Y-123330000D02*
X186195000Y-123330000D01*
X183470000Y-120605000D02*
X183470000Y-113420000D01*
X186195000Y-123330000D02*
X183470000Y-120605000D01*
X51390000Y-83480000D02*
X93840000Y-83480000D01*
X93840000Y-83480000D02*
X95840000Y-85480000D01*
X45040000Y-85480000D02*
X46310000Y-85480000D01*
X46310000Y-85480000D02*
X48310000Y-83480000D01*
X48310000Y-83480000D02*
X51390000Y-83480000D01*
X45040000Y-93100000D02*
X94570000Y-93100000D01*
X94570000Y-93100000D02*
X95840000Y-93100000D01*
X45040000Y-95640000D02*
X95840000Y-95640000D01*
X92760000Y-88020000D02*
X95840000Y-88020000D01*
X92760000Y-90560000D02*
X95840000Y-90560000D01*
X92760000Y-105800000D02*
X95840000Y-105800000D01*
D29*
X103460000Y-93100000D02*
X108540000Y-93100000D01*
X154260000Y-90560000D02*
X173310000Y-90560000D01*
X147910000Y-96910000D02*
X154260000Y-90560000D01*
X112350000Y-96910000D02*
X147910000Y-96910000D01*
X108540000Y-93100000D02*
X112350000Y-96910000D01*
X103460000Y-90560000D02*
X109810000Y-90560000D01*
X183470000Y-96910000D02*
X183470000Y-105800000D01*
X174580000Y-88020000D02*
X177120000Y-90560000D01*
X150450000Y-88020000D02*
X174580000Y-88020000D01*
X145370000Y-93100000D02*
X150450000Y-88020000D01*
X112350000Y-93100000D02*
X145370000Y-93100000D01*
X109810000Y-90560000D02*
X112350000Y-93100000D01*
M02*
