M48
;DRILL file {KiCad 4.0.7} date 12/26/17 17:51:10
;FORMAT={-:-/ absolute / inch / decimal}
FMAT,2
INCH,TZ
T1C0.016
T2C0.031
T3C0.035
T4C0.039
T5C0.039
T6C0.040
T7C0.045
T8C0.120
%
G90
G05
M72
T1
X2.2232Y-4.4654
X2.3732Y-3.3654
X2.3732Y-3.5654
X2.4232Y-3.8654
X2.5732Y-3.1654
X2.6732Y-3.8654
X2.7232Y-3.5654
X3.1732Y-4.3654
X3.5232Y-4.3654
X4.4732Y-3.3654
X4.4732Y-4.8654
X4.5732Y-4.3654
X4.6232Y-4.7654
X4.7232Y-4.4654
X4.7732Y-4.7654
X5.3732Y-4.2154
X5.5232Y-4.1654
X5.5732Y-3.9654
X5.6732Y-4.1654
X5.7732Y-5.0654
X6.8232Y-3.5654
X6.9732Y-3.5654
X7.0732Y-5.2654
X7.125Y-4.675
X7.2232Y-3.8154
X7.325Y-4.725
X8.0232Y-4.5654
X8.1732Y-3.8154
X8.3232Y-4.5654
T2
X3.7732Y-3.3654
X3.7732Y-3.4654
X3.7732Y-3.5654
X3.7732Y-3.6654
X3.7732Y-3.7654
X3.7732Y-3.8654
X3.7732Y-3.9654
X3.7732Y-4.0654
X3.7732Y-4.1654
X3.7732Y-4.2654
X3.7732Y-4.3654
X3.7732Y-4.4654
X3.7732Y-4.5654
X3.7732Y-4.6654
X3.8732Y-4.9154
X3.9717Y-4.9154
X4.0732Y-3.3654
X4.0732Y-3.4654
X4.0732Y-3.5654
X4.0732Y-3.6654
X4.0732Y-3.7654
X4.0732Y-3.8654
X4.0732Y-3.9654
X4.0732Y-4.0654
X4.0732Y-4.1654
X4.0732Y-4.2654
X4.0732Y-4.3654
X4.0732Y-4.4654
X4.0732Y-4.5654
X4.0732Y-4.6654
X4.2732Y-3.3654
X4.2732Y-3.4638
X4.2732Y-4.1654
X4.2732Y-4.2638
X5.3998Y-3.3654
X5.4982Y-3.3654
X5.6498Y-3.3654
X5.7482Y-3.3654
X6.2732Y-4.2669
X6.2732Y-4.3654
X6.5232Y-3.9654
X6.5232Y-4.1654
X6.5232Y-4.4654
X6.5732Y-4.7154
X6.6217Y-3.9654
X6.6232Y-4.1654
X6.6232Y-4.4654
X6.6717Y-4.7154
X6.7232Y-4.1654
X6.7232Y-4.4654
X6.8232Y-4.1654
X6.8232Y-4.4654
X6.8232Y-4.7154
X6.9217Y-4.7154
X6.9232Y-4.1654
X6.9232Y-4.4654
X7.0232Y-4.1654
X7.0232Y-4.4654
X7.1232Y-4.1654
X7.1232Y-4.4654
X7.2232Y-4.1654
X7.2232Y-4.4654
X7.4732Y-4.2654
X7.4732Y-4.3638
X7.7998Y-3.3654
X7.8982Y-3.3654
X8.0498Y-3.3654
X8.1482Y-3.3654
T3
X6.9232Y-2.5154
X7.0232Y-2.5154
T4
X1.7732Y-3.3654
X1.7732Y-3.4654
X1.7732Y-3.5654
X1.7732Y-3.6654
X1.7732Y-3.7654
X1.7732Y-3.8654
T5
X6.6263Y-2.7654
X7.0201Y-2.7654
T6
X3.1134Y-5.4654
X3.1673Y-5.5654
X3.2232Y-5.4654
X3.2752Y-5.5654
X3.3283Y-5.4654
X3.385Y-5.5654
X3.4382Y-5.4654
X3.4933Y-5.5654
X3.5484Y-5.4654
X3.6012Y-5.5654
X3.6583Y-5.4654
X3.7114Y-5.5654
X3.7634Y-5.4654
X3.8114Y-5.5654
X3.8732Y-5.4654
X5.3134Y-5.4654
X5.3673Y-5.5654
X5.4232Y-5.4654
X5.4752Y-5.5654
X5.5283Y-5.4654
X5.585Y-5.5654
X5.6382Y-5.4654
X5.6933Y-5.5654
X5.7484Y-5.4654
X5.8012Y-5.5654
X5.8583Y-5.4654
X5.9114Y-5.5654
X5.9634Y-5.4654
X6.0114Y-5.5654
X6.0732Y-5.4654
X7.5134Y-5.4654
X7.5673Y-5.5654
X7.6232Y-5.4654
X7.6752Y-5.5654
X7.7283Y-5.4654
X7.785Y-5.5654
X7.8382Y-5.4654
X7.8933Y-5.5654
X7.9484Y-5.4654
X8.0012Y-5.5654
X8.0583Y-5.4654
X8.1114Y-5.5654
X8.1634Y-5.4654
X8.2114Y-5.5654
X8.2732Y-5.4654
X8.9732Y-3.0154
X8.9732Y-3.1252
X8.9732Y-3.2303
X8.9732Y-3.3406
X8.9732Y-3.4504
X8.9732Y-4.5303
X8.9732Y-4.6406
X8.9732Y-4.7453
X8.9732Y-4.8555
X8.9732Y-4.9654
X9.0732Y-3.0705
X9.0732Y-3.1803
X9.0732Y-3.2854
X9.0732Y-3.3953
X9.0732Y-4.5854
X9.0732Y-4.6953
X9.0732Y-4.8004
X9.0732Y-4.9102
T7
X5.4732Y-3.1404
X5.5732Y-3.1404
X5.6732Y-3.1404
X7.8732Y-3.1404
X7.9732Y-3.1404
X8.0732Y-3.1404
T8
X2.8331Y-5.5555
X4.1531Y-5.5654
X5.0331Y-5.5555
X6.3531Y-5.5654
X7.2331Y-5.5555
X8.5531Y-5.5654
X9.0732Y-2.7354
X9.0732Y-3.7354
X9.0732Y-4.2504
X9.0732Y-5.2504
T4
X2.6882Y-2.4579G85X2.6882Y-2.5366
G05
X2.9126Y-2.3791G85X2.8339Y-2.3791
G05
X2.9126Y-2.6154G85X2.8339Y-2.6154
G05
X6.4382Y-2.4579G85X6.4382Y-2.5366
G05
X6.6626Y-2.3791G85X6.5839Y-2.3791
G05
X6.6626Y-2.6154G85X6.5839Y-2.6154
G05
T0
M30
